<svg xmlns="http://www.w3.org/2000/svg" viewBox="0 0 1280 720" style="background: linear-gradient(135deg, #0a0a20 0%, #1a1a40 100%);">
  <defs>
    <radialGradient id="starGlow" cx="50%" cy="50%" r="50%">
      <stop offset="0%" style="stop-color:#ffffff;stop-opacity:0.8"/>
      <stop offset="100%" style="stop-color:#ffffff;stop-opacity:0"/>
    </radialGradient>
  </defs>

  <!-- Stars -->
  <circle cx="965.0023154584189" cy="696.8099177758671" r="3.0934221209754726" fill="white" opacity="0.5680319013650665"/>
  <circle cx="547.0374548775686" cy="274.97521656434844" r="1.7995000899563849" fill="white" opacity="0.2654925529040549"/>
  <circle cx="883.0705072390566" cy="486.38517665742876" r="1.7232240910268537" fill="white" opacity="0.9408470616831781"/>
  <circle cx="225.45867782596503" cy="131.78383252841815" r="2.2523145951327255" fill="white" opacity="0.41839065622303373"/>
  <circle cx="556.7224504974533" cy="56.51944353067931" r="2.808026985777202" fill="white" opacity="0.40131280952442216"/>
  <circle cx="1166.8397828870295" cy="308.2916251542368" r="1.5092483829482883" fill="white" opacity="0.7278946809540823"/>
  <circle cx="985.5539360771936" cy="526.0691505228451" r="2.7690666591056856" fill="white" opacity="0.8058757707933379"/>
  <circle cx="1100.7813329916519" cy="236.06154201137798" r="2.811679512310327" fill="white" opacity="0.39903258933735375"/>
  <circle cx="819.6543924652843" cy="135.35359443908786" r="1.044623218481709" fill="white" opacity="0.577321843547981"/>
  <circle cx="500.81895789400875" cy="201.74137311381432" r="2.521058786247609" fill="white" opacity="0.35621652288223804"/>
  <circle cx="738.7654328016922" cy="666.9156339784867" r="3.570518486745744" fill="white" opacity="0.6329390276044684"/>
  <circle cx="608.9872980851819" cy="582.1690670952149" r="1.9320447343360834" fill="white" opacity="0.3514861766474397"/>
  <circle cx="1088.134712169814" cy="594.1305167268208" r="2.446227232872359" fill="white" opacity="0.680985087802928"/>
  <circle cx="63.52049721246857" cy="697.9252419336967" r="3.3137043220776774" fill="white" opacity="0.6815144208676849"/>
  <circle cx="571.2066920285988" cy="502.54377539216017" r="1.300848310692442" fill="white" opacity="0.7703694453557133"/>
  <circle cx="973.1947979594306" cy="332.1602161308117" r="2.350522558462964" fill="white" opacity="0.36870023640297733"/>
  <circle cx="682.1761053848854" cy="510.856427983326" r="2.7999631077962306" fill="white" opacity="0.8545250882527682"/>
  <circle cx="729.0459973492511" cy="220.70718306765536" r="2.707285155576236" fill="white" opacity="0.4513002930727359"/>
  <circle cx="282.54394134721707" cy="195.4068813533144" r="2.5534542707750068" fill="white" opacity="0.6994885795336687"/>
  <circle cx="1115.8086803201265" cy="269.593258810183" r="3.612484944212768" fill="white" opacity="0.8666515664666379"/>
  <circle cx="95.18098396194347" cy="378.82234842756174" r="2.153314459822176" fill="white" opacity="0.87713110314971"/>
  <circle cx="743.9558685170286" cy="329.45253385310605" r="1.0773180380080667" fill="white" opacity="0.5290040116563564"/>
  <circle cx="1115.6835466338398" cy="108.93893328922272" r="3.4164193454169602" fill="white" opacity="0.4952933039381169"/>
  <circle cx="1207.0070464434316" cy="488.2875260230303" r="2.782018817381706" fill="white" opacity="0.38799476982875075"/>
  <circle cx="1128.4543261136878" cy="428.94103459833326" r="2.8858771983559928" fill="white" opacity="0.4782390003674543"/>
  <circle cx="673.1020352113901" cy="409.8681711994422" r="2.875297802227224" fill="white" opacity="0.8205676999545342"/>
  <circle cx="1116.231800125138" cy="649.5351503103618" r="3.461676331046295" fill="white" opacity="0.7424295043366065"/>
  <circle cx="467.85539750472964" cy="188.96696376598356" r="3.791009404510323" fill="white" opacity="0.3752944547726605"/>
  <circle cx="56.49320453056475" cy="113.39307737292488" r="1.7370789469746097" fill="white" opacity="0.9008998837282587"/>
  <circle cx="931.0866383364777" cy="466.03240006503484" r="3.313894816160486" fill="white" opacity="0.6293376839310882"/>
  <circle cx="1053.3507721014344" cy="516.4741450451776" r="3.794634894616678" fill="white" opacity="0.39792226797255137"/>
  <circle cx="478.9046567211548" cy="420.0869716809583" r="1.5497136923192225" fill="white" opacity="0.8104624245037202"/>
  <circle cx="770.2678355677574" cy="629.2350745750159" r="3.9068889884197007" fill="white" opacity="0.2892101508501645"/>
  <circle cx="546.0755215365348" cy="295.6786619658772" r="2.0944118557393416" fill="white" opacity="0.5646602872562436"/>
  <circle cx="1194.975094305403" cy="599.0815810040231" r="1.7045995106992424" fill="white" opacity="0.5761766974837608"/>
  <circle cx="3.2870894117294824" cy="637.9929487076179" r="3.398088401456765" fill="white" opacity="0.72950511240285"/>
  <circle cx="675.5340402046596" cy="583.0984107774332" r="3.711564070312064" fill="white" opacity="0.33313055137981973"/>
  <circle cx="810.1891231182111" cy="464.31837654354575" r="2.8872758085933956" fill="white" opacity="0.3668796723674593"/>
  <circle cx="1101.1928226606278" cy="401.32536557436515" r="2.155581541450431" fill="white" opacity="0.5509437189913091"/>
  <circle cx="148.06076962006216" cy="17.7527407020556" r="2.1601735849285393" fill="white" opacity="0.5557499008613302"/>
  <circle cx="149.55887749336114" cy="520.9802483428482" r="1.4360318806179095" fill="white" opacity="0.8265642481069224"/>
  <circle cx="271.9354032492896" cy="429.36075779065953" r="2.315438223825513" fill="white" opacity="0.32625911256491574"/>
  <circle cx="220.84677937554062" cy="461.3198340910219" r="2.392411588208896" fill="white" opacity="0.5897562676798234"/>
  <circle cx="896.3814885538429" cy="77.08753084003934" r="1.1934329467177147" fill="white" opacity="0.8193355373205389"/>
  <circle cx="511.0064224095632" cy="120.35175210025939" r="2.1539114171970297" fill="white" opacity="0.6434598704176353"/>
  <circle cx="336.6295890806157" cy="563.9492532610382" r="3.643502383869084" fill="white" opacity="0.6819364261580008"/>
  <circle cx="77.79090174199752" cy="330.6608284042722" r="2.7211341533172355" fill="white" opacity="0.38075827307766397"/>
  <circle cx="63.04804300266056" cy="149.6765329081204" r="1.3778828739871818" fill="white" opacity="0.9853996211124205"/>
  <circle cx="31.79434527982238" cy="376.8332120339741" r="3.1380224980011286" fill="white" opacity="0.36615419635582946"/>
  <circle cx="603.4190344572397" cy="123.1374606744516" r="1.9685914540906104" fill="white" opacity="0.39948323023652893"/>
  <circle cx="1136.9556510973155" cy="700.6918842413662" r="3.1417623784208586" fill="white" opacity="0.7252184778230515"/>
  <circle cx="131.56845361496238" cy="263.2371371481855" r="1.7854759760320211" fill="white" opacity="0.3231842256935066"/>
  <circle cx="677.8825211480898" cy="365.65556745230134" r="2.2100429723245796" fill="white" opacity="0.4605178557786491"/>
  <circle cx="55.69660142040249" cy="596.5815251835497" r="1.7114018996279945" fill="white" opacity="0.5938414181319539"/>
  <circle cx="755.2364860464149" cy="254.8112040812994" r="3.6140501757933987" fill="white" opacity="0.2233842383871359"/>
  <circle cx="903.2457618722199" cy="75.53295080532025" r="1.230806139032391" fill="white" opacity="0.7406907694127074"/>
  <circle cx="424.32799006494463" cy="525.3196273781406" r="3.78591216117483" fill="white" opacity="0.9552263881325547"/>
  <circle cx="364.5691424584021" cy="189.22808446315776" r="3.704402301565464" fill="white" opacity="0.8878782725424237"/>
  <circle cx="183.62611674201872" cy="484.8229978598215" r="1.7104659217444802" fill="white" opacity="0.6107760502774542"/>
  <circle cx="330.0512682282303" cy="330.80200539462385" r="2.1230310466353948" fill="white" opacity="0.27653200112870824"/>
  <circle cx="660.696375097549" cy="531.8194024103883" r="1.2796525418476212" fill="white" opacity="0.2175579724199686"/>
  <circle cx="517.2460110152749" cy="714.4628574057019" r="2.5741910177273883" fill="white" opacity="0.946367796704056"/>
  <circle cx="619.894115609143" cy="569.1465888525789" r="1.8910731044887577" fill="white" opacity="0.9768734450627476"/>
  <circle cx="80.88251396493632" cy="658.8579092424" r="2.303124994080507" fill="white" opacity="0.7897766328580926"/>
  <circle cx="1078.6674494712136" cy="78.91905309372117" r="2.774805317792704" fill="white" opacity="0.952783535269685"/>
  <circle cx="417.3106699467263" cy="85.14522241255007" r="2.3135693927571297" fill="white" opacity="0.998940808314791"/>
  <circle cx="285.8555165443778" cy="570.1496642108895" r="3.0869400224515298" fill="white" opacity="0.8398568825512684"/>
  <circle cx="657.0971666266748" cy="478.4030826128275" r="1.068067374738937" fill="white" opacity="0.9458706146023643"/>
  <circle cx="1262.6170491585024" cy="152.45462674661897" r="2.3802045874237683" fill="white" opacity="0.871586759801039"/>
  <circle cx="558.5862425543783" cy="224.50835864780694" r="2.572645181329486" fill="white" opacity="0.8035059962401214"/>
  <circle cx="775.584085099465" cy="144.45359901794467" r="2.7360727438618513" fill="white" opacity="0.6639441680388206"/>
  <circle cx="751.0347881345954" cy="278.2636394455567" r="3.29108257862677" fill="white" opacity="0.6951316114517132"/>
  <circle cx="1161.1742721787016" cy="249.44485332299269" r="1.7915931758572405" fill="white" opacity="0.2492839891358818"/>
  <circle cx="533.0005114159178" cy="560.2645941699632" r="3.8924979057568407" fill="white" opacity="0.2042830648742287"/>
  <circle cx="899.2699076786776" cy="87.35578633460113" r="1.2113143487820839" fill="white" opacity="0.8710896356857407"/>
  <circle cx="584.1073133929945" cy="27.861128146258753" r="3.3008649554830605" fill="white" opacity="0.2638434268049961"/>
  <circle cx="233.00094522747827" cy="20.334254958546154" r="2.5149980758694994" fill="white" opacity="0.6863327137621924"/>
  <circle cx="1186.2573192444852" cy="620.7484530292288" r="3.07534939180046" fill="white" opacity="0.7149314677027021"/>
  <circle cx="468.97892479827306" cy="165.3289402241265" r="3.7273436408322773" fill="white" opacity="0.2297273501521554"/>
  <circle cx="970.3378505487166" cy="105.70563667556843" r="3.3979700214373167" fill="white" opacity="0.70369761292154"/>
  <circle cx="1197.6102013614432" cy="586.241108505226" r="3.641871047936134" fill="white" opacity="0.5814278882214265"/>
  <circle cx="517.5112897128696" cy="259.3048316102117" r="3.539363462961051" fill="white" opacity="0.7636219206616677"/>
  <circle cx="1279.8832053339615" cy="431.96678533949313" r="1.56974101292077" fill="white" opacity="0.7050275834556803"/>
  <circle cx="977.7046695718371" cy="83.17264063689717" r="2.1176427024612745" fill="white" opacity="0.5551684571118068"/>
  <circle cx="737.1589264803285" cy="125.66066032395028" r="2.0031450684394123" fill="white" opacity="0.8661398575145631"/>
  <circle cx="922.1995882712741" cy="373.8973542672501" r="3.0495712418081995" fill="white" opacity="0.4491012951869555"/>
  <circle cx="71.50252289935935" cy="599.7898791167784" r="2.958980852935235" fill="white" opacity="0.4609985477954668"/>
  <circle cx="27.139578914276115" cy="637.979911201223" r="1.8308037389573035" fill="white" opacity="0.8644500198491798"/>
  <circle cx="217.5599253033019" cy="479.6262074343545" r="1.5939371711276364" fill="white" opacity="0.4340670417076378"/>
  <circle cx="1153.1742280226697" cy="88.51922322620389" r="3.8554310944569172" fill="white" opacity="0.6810102899511877"/>
  <circle cx="853.380699699396" cy="599.0671262254195" r="2.230547817436534" fill="white" opacity="0.8987491025007854"/>
  <circle cx="612.4953919081966" cy="502.54409617024425" r="2.399348765219867" fill="white" opacity="0.7667595329156103"/>
  <circle cx="326.8637868267402" cy="290.51109483721535" r="1.281572309423679" fill="white" opacity="0.30165780774848516"/>
  <circle cx="541.4316301270821" cy="563.2999006184073" r="2.330859840240511" fill="white" opacity="0.4689376770851569"/>
  <circle cx="96.32342628579636" cy="269.95331706296844" r="3.4420653388712985" fill="white" opacity="0.8819682440297263"/>
  <circle cx="665.002832024598" cy="601.5809906225933" r="2.4912524888960106" fill="white" opacity="0.4743517866116575"/>
  <circle cx="995.7446845034775" cy="36.73678478965252" r="2.220719325370463" fill="white" opacity="0.46016819119113567"/>
  <circle cx="320.1479312322087" cy="640.3406187980903" r="1.8447591975397264" fill="white" opacity="0.387300926570372"/>
  <circle cx="822.0815799084144" cy="480.0023066502702" r="2.136059080522777" fill="white" opacity="0.7798545315261287"/>
  <circle cx="689.4205192429947" cy="381.52502499720697" r="2.089748378921124" fill="white" opacity="0.9651365457295138"/>

  <!-- Game title -->
  <text x="640" y="200" text-anchor="middle" font-family="Arial, sans-serif" font-size="72" font-weight="bold" fill="#00aaff">STAR SHIP</text>
  <text x="640" y="260" text-anchor="middle" font-family="Arial, sans-serif" font-size="32" fill="#ffffff">Space Adventure Game</text>

  <!-- Spaceship -->
  <g transform="translate(300, 400) scale(3)">
    <path d="M0,0 L40,5 L60,15 L40,25 L0,30 Z" fill="#4488ff"/>
    <ellipse cx="45" cy="15" rx="8" ry="5" fill="#00ffff"/>
  </g>

  <!-- Coins -->
  <g transform="translate(800, 300)">
    <circle cx="0" cy="0" r="15" fill="#ffd700"/>
    <circle cx="60" cy="16.82941969615793" r="15" fill="#ffd700"/>
    <circle cx="120" cy="18.185948536513635" r="15" fill="#ffd700"/>
    <circle cx="180" cy="2.8224001611973444" r="15" fill="#ffd700"/>
    <circle cx="240" cy="-15.136049906158565" r="15" fill="#ffd700"/>
  </g>

  <!-- Asteroids -->
  <g transform="translate(900, 500)">
    <circle cx="0" cy="0" r="20" fill="#666666"/>
    <circle cx="80" cy="27.278922804770453" r="25" fill="#666666"/>
    <circle cx="160" cy="-22.704074859237846" r="30" fill="#666666"/>
  </g>

  <!-- UI mockup -->
  <text x="50" y="60" font-family="Arial, sans-serif" font-size="24" fill="#ffffff">Score: 12,340</text>
  <text x="50" y="90" font-family="Arial, sans-serif" font-size="18" fill="#ffd700">High Score: 25,680</text>
  <text x="1230" y="60" text-anchor="end" font-family="Arial, sans-serif" font-size="24" fill="#00ffff">Level: 8</text>
  <text x="1230" y="90" text-anchor="end" font-family="Arial, sans-serif" font-size="18" fill="#ff4444">❤️❤️🖤</text>
</svg>