<svg xmlns="http://www.w3.org/2000/svg" viewBox="0 0 1280 720" style="background: linear-gradient(135deg, #0a0a20 0%, #1a1a40 100%);">
  <defs>
    <radialGradient id="starGlow" cx="50%" cy="50%" r="50%">
      <stop offset="0%" style="stop-color:#ffffff;stop-opacity:0.8"/>
      <stop offset="100%" style="stop-color:#ffffff;stop-opacity:0"/>
    </radialGradient>
  </defs>

  <!-- Stars -->
  <circle cx="1277.263701448343" cy="674.2909119077462" r="2.494528806678572" fill="white" opacity="0.22817607864768022"/>
  <circle cx="99.32195980369556" cy="398.7642794697794" r="1.5242748372198986" fill="white" opacity="0.8200525667961767"/>
  <circle cx="225.8103609068482" cy="387.6509043321888" r="3.2547615979599094" fill="white" opacity="0.8029643570279401"/>
  <circle cx="526.811281308614" cy="122.24946594388955" r="1.1365885569910932" fill="white" opacity="0.49026627398882855"/>
  <circle cx="31.500292442992475" cy="315.6176519127826" r="1.3985885369599942" fill="white" opacity="0.5041202736710462"/>
  <circle cx="1134.9805651183508" cy="273.413133299252" r="1.761771593407324" fill="white" opacity="0.9001528502370648"/>
  <circle cx="466.00295796680484" cy="40.0633363068221" r="2.892088155920354" fill="white" opacity="0.8390491855175457"/>
  <circle cx="289.6510820968908" cy="544.9436077050091" r="1.1279964262124693" fill="white" opacity="0.9599817485027666"/>
  <circle cx="455.5712334832788" cy="229.02279627897585" r="2.1276519591355614" fill="white" opacity="0.5381964077923109"/>
  <circle cx="535.0871890889787" cy="215.65108925395998" r="2.4232002629750395" fill="white" opacity="0.6913171443737811"/>
  <circle cx="944.1193155021879" cy="2.0771996703326856" r="2.190897888417583" fill="white" opacity="0.23307432521813568"/>
  <circle cx="272.0783003434403" cy="497.92996397756554" r="2.5713235160285746" fill="white" opacity="0.4441884492514319"/>
  <circle cx="123.32531966233859" cy="717.4787803802049" r="3.689475658616041" fill="white" opacity="0.7287625982175727"/>
  <circle cx="247.54188371421975" cy="122.92780202337775" r="3.3505012355407295" fill="white" opacity="0.516334011446761"/>
  <circle cx="1242.3521934853377" cy="474.9399269554475" r="2.73594454561734" fill="white" opacity="0.5326429689512058"/>
  <circle cx="1270.8428957942128" cy="50.39613437911793" r="1.0375934573237058" fill="white" opacity="0.9803014678594333"/>
  <circle cx="60.623388782170196" cy="348.64729308358784" r="2.2461418328989695" fill="white" opacity="0.27876415572327534"/>
  <circle cx="279.28577704683505" cy="658.9548770259805" r="2.105133240859877" fill="white" opacity="0.8733742130905873"/>
  <circle cx="943.7913834828487" cy="196.29437096690083" r="2.748170646104536" fill="white" opacity="0.7674686809784823"/>
  <circle cx="1208.4910303563424" cy="78.20560810317473" r="2.155619216444475" fill="white" opacity="0.493573488532498"/>
  <circle cx="1271.90975251769" cy="208.14138614055148" r="2.1670348084952273" fill="white" opacity="0.733502722973399"/>
  <circle cx="963.9204465739567" cy="469.06830021949844" r="2.0841686351368938" fill="white" opacity="0.23878354659971812"/>
  <circle cx="722.4564746413525" cy="133.7745696183561" r="2.963803683164482" fill="white" opacity="0.9408769984138854"/>
  <circle cx="1029.9607130758388" cy="576.6641174588818" r="2.073019989850142" fill="white" opacity="0.9565949814471251"/>
  <circle cx="18.38266976495845" cy="329.3253580431477" r="1.764620977716762" fill="white" opacity="0.3652405741742051"/>
  <circle cx="732.9980321382868" cy="574.1567872933092" r="1.8699287462934324" fill="white" opacity="0.5726074163414069"/>
  <circle cx="755.8597816061774" cy="705.1898378157409" r="2.0660007773598315" fill="white" opacity="0.2626726822034641"/>
  <circle cx="808.3395286366942" cy="715.2535025506277" r="1.8383516414570669" fill="white" opacity="0.20525729373778817"/>
  <circle cx="268.1439897520312" cy="40.6771569790869" r="1.4420967527237973" fill="white" opacity="0.553682361128421"/>
  <circle cx="581.0467723800193" cy="559.7778589488614" r="3.7437762074949212" fill="white" opacity="0.24201565994221622"/>
  <circle cx="38.97916829345007" cy="594.8488010110137" r="1.1356478480350172" fill="white" opacity="0.22562807207022859"/>
  <circle cx="470.1444039664369" cy="486.19625874784384" r="1.1529685256468114" fill="white" opacity="0.6708841530570255"/>
  <circle cx="102.16242405774466" cy="150.18323526834362" r="1.903622420609949" fill="white" opacity="0.2315876433254349"/>
  <circle cx="420.342723768932" cy="313.44673861709634" r="3.8013698446147597" fill="white" opacity="0.9852896195675"/>
  <circle cx="853.6289590595718" cy="536.9979801790637" r="1.3542289879545284" fill="white" opacity="0.649237078086571"/>
  <circle cx="1139.9617684015761" cy="652.5353207487069" r="2.5007261800795932" fill="white" opacity="0.84595972550139"/>
  <circle cx="225.6088850782902" cy="574.6220558531014" r="2.226084782654803" fill="white" opacity="0.37564359786292756"/>
  <circle cx="888.9124878425687" cy="355.28857906056703" r="2.5546102382281948" fill="white" opacity="0.7463542298165893"/>
  <circle cx="385.9329839481313" cy="560.0549535348727" r="1.9410987565084525" fill="white" opacity="0.499134806111009"/>
  <circle cx="1077.187629061559" cy="210.78890636858173" r="2.2617754798801792" fill="white" opacity="0.643786209582285"/>
  <circle cx="385.7865384247913" cy="118.56890861299183" r="1.116800701665578" fill="white" opacity="0.2673840725094154"/>
  <circle cx="875.5083772484784" cy="610.3800821280468" r="3.273449195703647" fill="white" opacity="0.3762371195061084"/>
  <circle cx="1162.1901047725096" cy="456.37717265119716" r="3.543363776855489" fill="white" opacity="0.33928063804808617"/>
  <circle cx="482.2663247144044" cy="511.5091873363888" r="3.8193665070983887" fill="white" opacity="0.9188024175540386"/>
  <circle cx="91.96991262634072" cy="686.1695791912456" r="2.4956264322198036" fill="white" opacity="0.2884540140959537"/>
  <circle cx="787.0130911689381" cy="300.6933907335403" r="1.8754350206283135" fill="white" opacity="0.5559529608964464"/>
  <circle cx="550.5592854675956" cy="194.34542842107595" r="3.212066623997827" fill="white" opacity="0.981475068548169"/>
  <circle cx="343.2162490246489" cy="299.82752284269503" r="2.260733820967732" fill="white" opacity="0.2729707801104585"/>
  <circle cx="373.3965377342963" cy="644.004207655119" r="3.552286553585247" fill="white" opacity="0.7055267918707773"/>
  <circle cx="610.5804455717769" cy="266.76706004977734" r="1.827115792289413" fill="white" opacity="0.22343922846056188"/>
  <circle cx="104.8584496517546" cy="451.8007881455051" r="3.0838722067941635" fill="white" opacity="0.21188603145524124"/>
  <circle cx="384.7479241623009" cy="4.362800282014536" r="2.788904965642795" fill="white" opacity="0.3206041096673913"/>
  <circle cx="689.7087429500575" cy="78.37618211607784" r="3.679603503808443" fill="white" opacity="0.8126297218724314"/>
  <circle cx="519.8643918973761" cy="574.0439217984737" r="3.288404014864197" fill="white" opacity="0.7082714728919017"/>
  <circle cx="1192.6703735717663" cy="478.3806809800993" r="1.9144619851252704" fill="white" opacity="0.6229650867269868"/>
  <circle cx="876.7926633599069" cy="356.2149815199148" r="1.4442206454677817" fill="white" opacity="0.9711987188201174"/>
  <circle cx="610.9586579020859" cy="345.6337418794553" r="2.104407562296269" fill="white" opacity="0.42625860450420955"/>
  <circle cx="729.6117447064199" cy="435.26975980186717" r="2.386220511136246" fill="white" opacity="0.8091855222261441"/>
  <circle cx="464.14015317724164" cy="476.2626643157591" r="3.1306721870755996" fill="white" opacity="0.3993405473632649"/>
  <circle cx="1222.0160666101694" cy="63.985565040004616" r="3.2464095462424325" fill="white" opacity="0.7724757307222356"/>
  <circle cx="1241.5592866005957" cy="636.7040356255228" r="1.3061423304433695" fill="white" opacity="0.8123896820637417"/>
  <circle cx="977.8846898555685" cy="714.8525613825503" r="1.6928103063026283" fill="white" opacity="0.41107716811643746"/>
  <circle cx="190.16408837756785" cy="358.3736891369014" r="1.7638641935341481" fill="white" opacity="0.27794639121916287"/>
  <circle cx="971.4045116870477" cy="71.53479466774573" r="1.3727447160990491" fill="white" opacity="0.7067946093351798"/>
  <circle cx="355.4141688024754" cy="209.8913631076106" r="1.8935154399959346" fill="white" opacity="0.574567741626322"/>
  <circle cx="1067.5092973649434" cy="483.09185349816727" r="1.8722279800545605" fill="white" opacity="0.7416837979061264"/>
  <circle cx="134.61181511357353" cy="298.5102824274787" r="1.3195646119481432" fill="white" opacity="0.7229324185075281"/>
  <circle cx="1055.5464834202348" cy="412.7641497202057" r="1.0671711923317697" fill="white" opacity="0.26212659053412574"/>
  <circle cx="650.3708769590548" cy="86.29439392254021" r="1.6748404426003942" fill="white" opacity="0.7373715925230548"/>
  <circle cx="551.4997841042958" cy="476.2562449389854" r="1.379532183722232" fill="white" opacity="0.20046506265750033"/>
  <circle cx="1173.3498829196778" cy="463.53037597007324" r="1.079317313563532" fill="white" opacity="0.612803568719626"/>
  <circle cx="14.330825809343537" cy="299.30198975344945" r="2.8022269999888065" fill="white" opacity="0.20370511507918626"/>
  <circle cx="1277.8258368124873" cy="26.03390425311467" r="3.215564476144724" fill="white" opacity="0.49221314556828377"/>
  <circle cx="626.7925440288686" cy="114.88214761163293" r="3.142783482589439" fill="white" opacity="0.8929563774723106"/>
  <circle cx="368.06947885590944" cy="119.64993193570164" r="1.8865280719837665" fill="white" opacity="0.22138675747626949"/>
  <circle cx="778.0914061537035" cy="428.60841923311295" r="3.4922338155796484" fill="white" opacity="0.7928011840168101"/>
  <circle cx="444.8787223549746" cy="565.553699109926" r="3.1628032308837817" fill="white" opacity="0.42031461861156744"/>
  <circle cx="1145.6276101976355" cy="506.3697417453695" r="1.16342033006592" fill="white" opacity="0.809244297092713"/>
  <circle cx="570.5639249646129" cy="136.09781760186246" r="1.2065241316478372" fill="white" opacity="0.9506490535237446"/>
  <circle cx="651.1296675054032" cy="446.6102821760059" r="3.0631053480296675" fill="white" opacity="0.5690480563297653"/>
  <circle cx="1258.623733277493" cy="682.8145370364302" r="3.686356397709196" fill="white" opacity="0.9760103164849747"/>
  <circle cx="667.0101309020513" cy="484.7001300923679" r="2.7760575098113804" fill="white" opacity="0.3689678243495054"/>
  <circle cx="350.8192299094699" cy="81.02824049794833" r="2.285850721465949" fill="white" opacity="0.5704233199352762"/>
  <circle cx="257.1267940759907" cy="474.3529924647505" r="1.0185546646607713" fill="white" opacity="0.8678703772054663"/>
  <circle cx="1157.266113364108" cy="557.9166374178211" r="3.8980852976500238" fill="white" opacity="0.2628924508394603"/>
  <circle cx="120.08407319366256" cy="437.20527000947897" r="1.789855033256389" fill="white" opacity="0.5361885739508456"/>
  <circle cx="545.6959949841441" cy="68.79708367547497" r="2.261707945260599" fill="white" opacity="0.7241967038752952"/>
  <circle cx="1166.4259561086872" cy="448.2374512748612" r="3.599105836632537" fill="white" opacity="0.7730158767787565"/>
  <circle cx="558.3911163981776" cy="389.5151415094336" r="3.0330011667581886" fill="white" opacity="0.8851824746571333"/>
  <circle cx="285.94181957117" cy="100.94133191246004" r="2.1166248101809146" fill="white" opacity="0.7689355651467897"/>
  <circle cx="117.04528700322413" cy="34.62819182926495" r="2.0281437513519123" fill="white" opacity="0.9998857155518941"/>
  <circle cx="521.9483567240447" cy="402.59400241796493" r="2.428366644280268" fill="white" opacity="0.7018047654383215"/>
  <circle cx="52.06998056130601" cy="495.37594741599617" r="1.9268963187847725" fill="white" opacity="0.8333957871739825"/>
  <circle cx="57.600335001356484" cy="165.6759724708596" r="1.9132644485413264" fill="white" opacity="0.7984657080914361"/>
  <circle cx="1073.5739355402823" cy="291.78906928430973" r="3.745890148935625" fill="white" opacity="0.8236348429691416"/>
  <circle cx="975.7897847348172" cy="172.9463675599594" r="2.8572721632591884" fill="white" opacity="0.658149833084823"/>
  <circle cx="268.3582712970289" cy="250.69942114693117" r="3.432238091281706" fill="white" opacity="0.7326739537920257"/>
  <circle cx="842.5071415160022" cy="2.1319492135956963" r="1.0029571019256076" fill="white" opacity="0.6659566482903541"/>
  <circle cx="356.95828571853156" cy="492.0353639484359" r="3.6863814769329144" fill="white" opacity="0.21689332077660098"/>
  <circle cx="974.5228783713801" cy="551.1050334586811" r="2.562725609600192" fill="white" opacity="0.6384642403199217"/>

  <!-- Game title -->
  <text x="640" y="200" text-anchor="middle" font-family="Arial, sans-serif" font-size="72" font-weight="bold" fill="#00aaff">STAR SHIP</text>
  <text x="640" y="260" text-anchor="middle" font-family="Arial, sans-serif" font-size="32" fill="#ffffff">Space Adventure Game</text>

  <!-- Spaceship -->
  <g transform="translate(300, 400) scale(3)">
    <path d="M0,0 L40,5 L60,15 L40,25 L0,30 Z" fill="#4488ff"/>
    <ellipse cx="45" cy="15" rx="8" ry="5" fill="#00ffff"/>
  </g>

  <!-- Coins -->
  <g transform="translate(800, 300)">
    <circle cx="0" cy="0" r="15" fill="#ffd700"/>
    <circle cx="60" cy="16.82941969615793" r="15" fill="#ffd700"/>
    <circle cx="120" cy="18.185948536513635" r="15" fill="#ffd700"/>
    <circle cx="180" cy="2.8224001611973444" r="15" fill="#ffd700"/>
    <circle cx="240" cy="-15.136049906158565" r="15" fill="#ffd700"/>
  </g>

  <!-- Asteroids -->
  <g transform="translate(900, 500)">
    <circle cx="0" cy="0" r="20" fill="#666666"/>
    <circle cx="80" cy="27.278922804770453" r="25" fill="#666666"/>
    <circle cx="160" cy="-22.704074859237846" r="30" fill="#666666"/>
  </g>

  <!-- UI mockup -->
  <text x="50" y="60" font-family="Arial, sans-serif" font-size="24" fill="#ffffff">Score: 12,340</text>
  <text x="50" y="90" font-family="Arial, sans-serif" font-size="18" fill="#ffd700">High Score: 25,680</text>
  <text x="1230" y="60" text-anchor="end" font-family="Arial, sans-serif" font-size="24" fill="#00ffff">Level: 8</text>
  <text x="1230" y="90" text-anchor="end" font-family="Arial, sans-serif" font-size="18" fill="#ff4444">❤️❤️🖤</text>
</svg>